<svg version="1.2" baseProfile="tiny-ps" xmlns="http://www.w3.org/2000/svg" viewBox="0 0 28 27" width="28" height="27">
	<title>Home (Desktop) – 1</title>
	<defs>
		<clipPath clipPathUnits="userSpaceOnUse" id="cp1">
			<path d="m-564-202h1440v2179h-1440z" />
		</clipPath>
		<linearGradient id="grd1" gradientUnits="userSpaceOnUse"  x1="1" y1="13.7" x2="27.5" y2="13.7">
			<stop offset="0" stop-color="#ffa286"  />
			<stop offset="1" stop-color="#e74c06"  />
		</linearGradient>
	</defs>
	<style>
		tspan { white-space:pre }
		.s0 { fill: url(#grd1) } 
	</style>
	<g id="Home (Desktop) – 1" clip-path="url(#cp1)">
		<g id="Group 7775">
			<g id="Group 7800">
				<g id="Group 7770">
					<path id="Path 7031" fill-rule="evenodd" class="s0" d="m27.48 13.31v0.72c-0.01 0.02-0.03 0.04-0.04 0.06c-0.14 1.1-1.09 2.18-2.41 2.31c-1.34 0.13-2.4-0.54-2.93-1.81c-0.03-0.07-0.14-0.15-0.22-0.15c-1.21-0.01-2.41-0.01-3.62 0c-0.07 0-0.17 0.09-0.2 0.16c-0.15 0.34-0.27 0.71-0.44 1.04c-0.08 0.16-0.07 0.24 0.05 0.37c1.84 1.84 3.69 3.68 5.52 5.52c0.14 0.14 0.24 0.15 0.42 0.07c1.27-0.56 2.76-0.09 3.46 1.12c0.19 0.33 0.27 0.72 0.41 1.08v0.67c-0.02 0.05-0.04 0.1-0.05 0.15c-0.14 0.77-0.52 1.39-1.18 1.8c-0.36 0.22-0.8 0.33-1.21 0.49h-0.67c-0.03-0.01-0.06-0.03-0.09-0.04c-1.88-0.38-2.82-2.14-2.07-3.89c0.06-0.14 0.03-0.21-0.07-0.31c-0.64-0.63-1.27-1.27-1.9-1.9c-1.22-1.22-2.44-2.44-3.66-3.65c-0.06-0.06-0.2-0.12-0.27-0.1c-0.43 0.17-0.84 0.37-1.3 0.57c0 0.48 0.01 1 0 1.53c0 0.18 0.06 0.24 0.22 0.31c1.08 0.46 1.69 1.27 1.77 2.45c0.07 1.17-0.64 2.26-1.72 2.69c-1.1 0.44-2.34 0.14-3.13-0.77c-0.75-0.86-0.88-2.16-0.31-3.16c0.37-0.64 0.92-1.06 1.61-1.29v-1.78c-0.41-0.18-0.8-0.32-1.16-0.51c-0.17-0.09-0.25-0.09-0.39 0.05c-1.84 1.85-3.68 3.69-5.52 5.52c-0.14 0.14-0.15 0.24-0.07 0.42c0.65 1.5-0.12 3.21-1.68 3.72c-0.17 0.06-0.35 0.1-0.52 0.14h-0.67c-0.06-0.02-0.11-0.04-0.17-0.05c-0.84-0.17-1.49-0.62-1.9-1.37c-0.17-0.31-0.25-0.67-0.36-1.01c0-0.22 0-0.45 0-0.67c0.01-0.03 0.03-0.06 0.04-0.09c0.37-1.87 2.15-2.82 3.89-2.07c0.18 0.08 0.25-0.01 0.35-0.11c1.84-1.84 3.68-3.68 5.52-5.52c0.06-0.06 0.11-0.12 0.14-0.14c-0.2-0.49-0.39-0.94-0.59-1.43c-0.44 0-0.92 0.01-1.4 0c-0.18 0-0.25 0.05-0.31 0.22c-0.51 1.31-1.87 2.02-3.22 1.7c-1.3-0.31-2.23-1.57-2.12-2.87c0.12-1.42 1.22-2.5 2.61-2.57c1.22-0.06 2.29 0.63 2.74 1.77c0.03 0.08 0.11 0.2 0.18 0.2c0.52 0.02 1.05 0.01 1.52 0.01c0.21-0.49 0.4-0.95 0.59-1.42c-0.01-0.01-0.04-0.05-0.07-0.08c-1.88-1.88-3.76-3.75-5.63-5.63c-0.13-0.13-0.22-0.1-0.36-0.04c-1.52 0.66-3.25-0.12-3.75-1.69c-0.05-0.16-0.09-0.33-0.13-0.49v-0.67c0.02-0.07 0.04-0.15 0.06-0.22c0.19-0.83 0.64-1.47 1.39-1.86c0.31-0.16 0.66-0.24 0.99-0.35h0.67c0.05 0.02 0.09 0.04 0.14 0.05c1.75 0.31 2.76 2.16 2.06 3.79c-0.09 0.21-0.06 0.32 0.09 0.48c1.83 1.82 3.66 3.65 5.49 5.48c0.06 0.06 0.12 0.11 0.15 0.14c0.49-0.21 0.95-0.4 1.43-0.59c0-1.2-0.01-2.42 0.01-3.64c0-0.21-0.06-0.29-0.25-0.37c-1.92-0.76-2.35-3.25-0.81-4.63c0.42-0.38 0.93-0.57 1.47-0.7h0.72c0.03 0.01 0.06 0.04 0.09 0.04c1.25 0.25 2.19 1.23 2.29 2.41c0.12 1.31-0.56 2.43-1.78 2.9c-0.17 0.06-0.19 0.15-0.19 0.3c0.01 1.17 0 2.34 0 3.52c0 0.07 0.01 0.15 0.01 0.17c0.42 0.18 0.81 0.32 1.17 0.51c0.18 0.09 0.27 0.08 0.41-0.06c1.81-1.82 3.63-3.64 5.45-5.45c0.14-0.14 0.17-0.24 0.09-0.44c-0.44-1.08-0.29-2.09 0.5-2.95c0.79-0.86 1.79-1.11 2.9-0.75c1.51 0.49 2.27 2.13 1.71 3.61c-0.56 1.47-2.24 2.16-3.69 1.53c-0.13-0.06-0.23-0.1-0.36 0.03c-1.85 1.86-3.7 3.71-5.56 5.56c-0.11 0.11-0.1 0.18-0.03 0.31c0.16 0.32 0.31 0.65 0.42 1c0.06 0.2 0.14 0.24 0.34 0.24c1.14-0.01 2.28-0.01 3.41 0c0.2 0 0.3-0.05 0.37-0.25c0.42-1.09 1.49-1.78 2.65-1.74c1.19 0.04 2.19 0.8 2.55 1.93c0.05 0.15 0.09 0.31 0.13 0.47zm-10.86 0.36c0-1.3-1.06-2.37-2.37-2.37c-1.31 0-2.39 1.08-2.39 2.38c0 1.3 1.07 2.37 2.37 2.37c1.32 0 2.38-1.07 2.38-2.38zm-12.85 11.69c0.67 0 1.21-0.55 1.21-1.22c0-0.67-0.55-1.21-1.22-1.21c-0.67 0-1.21 0.55-1.21 1.22c0 0.67 0.55 1.21 1.22 1.21zm-0.01-20.95c0.67 0 1.22-0.55 1.22-1.21c0-0.67-0.55-1.22-1.21-1.22c-0.67 0-1.21 0.54-1.22 1.21c0 0.67 0.54 1.22 1.21 1.22zm20.94 20.95c0.67 0.01 1.22-0.53 1.23-1.2c0.01-0.67-0.54-1.22-1.2-1.23c-0.67-0.01-1.22 0.54-1.23 1.2c-0.01 0.67 0.53 1.22 1.2 1.23zm1.18-22.12c0-0.68-0.53-1.21-1.21-1.21c-0.67 0-1.22 0.54-1.22 1.21c0 0.66 0.55 1.22 1.21 1.22c0.67 0 1.21-0.54 1.21-1.21zm-18.62 10.45c0.01-0.68-0.53-1.22-1.2-1.22c-0.67 0-1.22 0.54-1.22 1.21c0 0.66 0.53 1.2 1.2 1.21c0.67 0.01 1.23-0.53 1.23-1.2zm17.46-1.22c-0.67 0-1.22 0.54-1.22 1.21c0 0.66 0.54 1.2 1.2 1.21c0.67 0.01 1.23-0.53 1.23-1.2c0-0.67-0.54-1.22-1.21-1.22zm-10.49-10.48c-0.67 0-1.21 0.56-1.2 1.23c0.01 0.66 0.55 1.2 1.21 1.2c0.67 0 1.22-0.55 1.21-1.22c0-0.67-0.55-1.21-1.22-1.21zm0.01 18.82c-0.68 0-1.21 0.55-1.2 1.22c0.01 0.66 0.54 1.2 1.2 1.2c0.67 0.01 1.22-0.54 1.22-1.22c0-0.68-0.54-1.21-1.22-1.21z" />
				</g>
			</g>
		</g>
	</g>
</svg>