<svg version="1.2" baseProfile="tiny-ps" xmlns="http://www.w3.org/2000/svg" viewBox="0 0 35 35" width="35" height="35">
	<title>Home (Desktop)</title>
	<defs>
		<clipPath clipPathUnits="userSpaceOnUse" id="cp1">
			<path d="m-1029-3134h1440v5218h-1440z" />
		</clipPath>
	</defs>
	<style>
		tspan { white-space:pre }
		.s0 { fill: #ffffff } 
	</style>
	<g id="Home (Desktop)" clip-path="url(#cp1)">
		<g id="Group 7760">
			<g id="Group 7756">
				<path id="Path 7027" fill-rule="evenodd" class="s0" d="m34.92 16.41v2.18c-0.02 0.09-0.05 0.17-0.06 0.26c-0.21 2.69-0.98 5.22-2.38 7.52c-2.77 4.54-6.77 7.33-12.01 8.32c-0.63 0.12-1.28 0.18-1.91 0.27h-2.18c-0.11-0.02-0.22-0.05-0.33-0.06c-0.73-0.11-1.47-0.17-2.19-0.32c-4.19-0.91-7.63-3.06-10.22-6.46c-3.22-4.23-4.31-9.01-3.23-14.21c0.95-4.59 3.44-8.22 7.31-10.85c3.82-2.6 8.06-3.5 12.62-2.77c3.31 0.53 6.23 1.94 8.72 4.18c3.01 2.7 4.9 6.04 5.6 10.03c0.11 0.63 0.18 1.28 0.27 1.92zm-17.45-12c-7.22 0-13.1 5.88-13.1 13.09c0 7.2 5.86 13.07 13.07 13.09c7.21 0.02 13.1-5.86 13.12-13.08c0.01-7.21-5.87-13.1-13.08-13.11z" />
				<path id="Path 7028" class="s0" d="m15.37 18.73c1.05-1.12 2.08-2.22 3.11-3.33c1.16-1.24 2.29-2.49 3.47-3.7c1.19-1.22 3.22-0.68 3.66 0.96c0.22 0.81-0.01 1.52-0.58 2.13c-1.38 1.47-2.75 2.94-4.12 4.41c-1.23 1.31-2.45 2.62-3.68 3.93c-1 1.07-2.25 1.14-3.34 0.16c-1.32-1.19-2.64-2.37-3.93-3.58c-1.18-1.1-0.87-3 0.6-3.61c0.82-0.35 1.61-0.23 2.29 0.36c0.71 0.62 1.4 1.26 2.1 1.89c0.13 0.12 0.27 0.24 0.42 0.37z" />
			</g>
		</g>
	</g>
</svg>