<svg version="1.2" baseProfile="tiny-ps" xmlns="http://www.w3.org/2000/svg" viewBox="0 0 53 53" width="53" height="53">
	<title>Home (Desktop)</title>
	<defs>
		<clipPath clipPathUnits="userSpaceOnUse" id="cp1">
			<path d="m-1121-4665h1440v5218h-1440z" />
		</clipPath>
		<clipPath clipPathUnits="userSpaceOnUse" id="cp2">
			<path d="m26.5 52c-14.1 0-25.5-11.4-25.5-25.5c0-14.1 11.4-25.5 25.5-25.5c14.1 0 25.5 11.4 25.5 25.5c0 14.1-11.4 25.5-25.5 25.5z" />
		</clipPath>
		<linearGradient id="grd1" gradientUnits="userSpaceOnUse"  x1=".7" y1="26.5" x2="52.3" y2="26.5">
			<stop offset="0" stop-color="#ffa286"  />
			<stop offset="1" stop-color="#e74c06"  />
		</linearGradient>
		<linearGradient id="grd2" gradientUnits="userSpaceOnUse"  x1="15.4" y1="26.5" x2="37.6" y2="26.5">
			<stop offset="0" stop-color="#ffa286"  />
			<stop offset="1" stop-color="#e74c06"  />
		</linearGradient>
	</defs>
	<style>
		tspan { white-space:pre }
		.s0 { fill: url(#grd1) } 
		.s1 { fill: #fefefe } 
		.s2 { fill: url(#grd2) } 
	</style>
	<g id="Home (Desktop)" clip-path="url(#cp1)">
		<g id="Group 7748">
			<g id="Group 7744" clip-path="url(#cp2)">
				<path id="Path 7024" class="s0" d="m52.3 24.59v3.83c-0.22 0.6-0.19 1.24-0.28 1.86c-0.57 3.77-1.92 7.25-4.02 10.43c-0.68 1.03-1.87 1.31-2.84 0.67c-0.97-0.63-1.21-1.8-0.55-2.83c1.73-2.67 2.9-5.54 3.39-8.69c0.64-4.08 0.2-8.05-1.46-11.82c-2.81-6.41-7.6-10.65-14.35-12.53c-5.32-1.48-10.5-0.89-15.45 1.55c-0.27 0.13-0.54 0.26-0.81 0.4c-4.06 2.35-7.15 5.6-9.15 9.86c-1.51 3.22-2.22 6.62-2.01 10.16c0.44 7.28 3.72 13.01 9.72 17.16c0.99 0.68 2.03 1.28 3.14 1.75c2.11 0.9 4.29 1.53 6.57 1.76c3.77 0.39 7.41-0.16 10.91-1.65c0.9-0.38 1.75-0.84 2.59-1.32c1.03-0.6 2.24-0.33 2.82 0.63c0.61 1.01 0.28 2.21-0.79 2.85c-3.41 2.02-7.09 3.22-11.05 3.55c-0.1 0.01-0.21-0.02-0.27 0.1h-4.03c-0.59-0.23-1.23-0.19-1.85-0.29c-1.67-0.29-3.33-0.64-4.91-1.3c-0.18-0.05-0.36-0.09-0.53-0.16c-3.49-1.38-6.55-3.41-9.16-6.12c-3.82-3.98-6.15-8.68-6.97-14.14c-0.08-0.55-0.05-1.13-0.27-1.66v-4.23c0.15-0.08 0.09-0.24 0.1-0.36c0.26-2.56 0.85-5.04 1.85-7.42c1.74-4.17 4.42-7.63 7.96-10.43c1.57-1.24 3.25-2.3 5.1-3.09c2.16-1.06 4.45-1.68 6.82-2.08c0.65-0.11 1.32-0.08 1.95-0.29h4.03c0.07 0.13 0.2 0.09 0.31 0.1c1.02 0.09 2.03 0.24 3.03 0.45c5.45 1.17 10.04 3.83 13.77 7.95c3.48 3.84 5.6 8.34 6.38 13.47c0.1 0.64 0.07 1.29 0.28 1.91z" />
				<path id="Path 7025" class="s1" d="m24.39 52.3c-7.76 0-15.52 0-23.28 0.01c-0.35 0-0.41-0.07-0.41-0.41c0.01-7.76 0.01-15.52 0.01-23.28c0.22 0.53 0.19 1.1 0.27 1.66c0.82 5.46 3.16 10.16 6.97 14.14c2.6 2.71 5.66 4.74 9.16 6.12c0.17 0.07 0.35 0.11 0.53 0.16c1.57 0.67 3.23 1.01 4.91 1.3c0.61 0.11 1.25 0.06 1.85 0.29z" />
				<path id="Path 7026" class="s2" d="m20.71 28.52c-1.06 0-2.12 0.01-3.17 0c-1.22-0.01-2.12-0.86-2.12-2.02c0-1.16 0.89-2.02 2.11-2.02c2.17 0 4.33-0.01 6.5 0.01c0.38 0 0.47-0.11 0.47-0.48c-0.02-2.2-0.02-4.4 0-6.6c0.01-0.95 0.62-1.7 1.53-1.94c0.86-0.23 1.78 0.17 2.24 0.97c0.21 0.36 0.27 0.75 0.27 1.16c-0.01 2.13 0.01 4.26-0.01 6.4c0 0.4 0.11 0.5 0.5 0.5c2.13-0.02 4.26-0.01 6.4-0.01c1.28 0 2.17 0.83 2.18 2c0 1.17-0.89 2.02-2.16 2.02c-2.13 0-4.26 0.01-6.4-0.01c-0.43 0-0.52 0.12-0.52 0.53c0.02 2.11 0.01 4.23 0.01 6.35c0 1.3-0.84 2.21-2.04 2.2c-1.17-0.01-1.99-0.91-1.99-2.19c0-2.1-0.01-4.2 0.01-6.3c0-0.44-0.08-0.61-0.56-0.59c-1.07 0.04-2.15 0.01-3.22 0.01z" />
			</g>
		</g>
	</g>
</svg>