<svg version="1.2" baseProfile="tiny-ps" xmlns="http://www.w3.org/2000/svg" viewBox="0 0 27 28" width="27" height="28">
	<title>Home (Desktop) – 1</title>
	<defs>
		<clipPath clipPathUnits="userSpaceOnUse" id="cp1">
			<path d="m-945-201h1440v2179h-1440z" />
		</clipPath>
		<linearGradient id="grd1" gradientUnits="userSpaceOnUse"  x1="0" y1="14.3" x2="26.5" y2="14.3">
			<stop offset="0" stop-color="#07ff86"  />
			<stop offset="1" stop-color="#009d06"  />
		</linearGradient>
		<linearGradient id="grd2" gradientUnits="userSpaceOnUse"  x1="9.8" y1="14.3" x2="16.7" y2="14.3">
			<stop offset="0" stop-color="#07ff86"  />
			<stop offset="1" stop-color="#009d06"  />
		</linearGradient>
	</defs>
	<style>
		tspan { white-space:pre }
		.s0 { fill: url(#grd1) } 
		.s1 { fill: url(#grd2) } 
	</style>
	<g id="Home (Desktop) – 1" clip-path="url(#cp1)">
		<g id="Group 7775">
			<g id="Group 7801">
				<g id="Group 7774">
					<path id="Path 7032" fill-rule="evenodd" class="s0" d="m26.48 14.33c0 7.49-5.94 13.58-13.24 13.59c-7.3 0-13.25-6.1-13.24-13.58c0-7.48 5.95-13.58 13.25-13.57c7.29 0.01 13.23 6.09 13.23 13.57zm-1.76 0c-0.01-6.51-5.13-11.75-11.48-11.75c-6.35 0-11.49 5.28-11.48 11.78c0.01 6.51 5.14 11.76 11.48 11.75c6.35 0 11.49-5.27 11.48-11.78z" />
					<path id="Path 7033" class="s1" d="m12.38 8.63c0-0.27-0.01-0.52 0-0.77c0.01-0.54 0.4-0.95 0.88-0.94c0.47 0.01 0.84 0.41 0.85 0.93c0.01 0.25 0 0.5 0 0.75c0.32 0.12 0.64 0.21 0.94 0.36c1.02 0.51 1.63 1.34 1.65 2.59c0.01 0.51-0.36 0.91-0.82 0.94c-0.48 0.02-0.88-0.35-0.9-0.87c-0.02-0.46-0.23-0.77-0.6-0.95c-0.75-0.37-1.52-0.38-2.27 0.01c-0.71 0.36-0.84 1.44-0.22 1.96c0.35 0.29 0.79 0.48 1.21 0.67c0.48 0.22 0.98 0.36 1.46 0.58c1.42 0.64 2.16 1.8 2.13 3.32c-0.02 1.04-0.48 1.83-1.31 2.34c-0.39 0.23-0.82 0.38-1.27 0.58c0 0.19 0 0.44 0 0.69c-0.01 0.55-0.36 0.95-0.85 0.96c-0.5 0.01-0.87-0.39-0.88-0.96c0-0.25 0-0.5 0-0.67c-0.5-0.24-0.98-0.42-1.4-0.7c-0.76-0.5-1.14-1.26-1.18-2.21c-0.02-0.58 0.32-1.01 0.8-1.04c0.52-0.03 0.89 0.34 0.92 0.93c0.02 0.37 0.18 0.65 0.47 0.82c0.83 0.47 1.68 0.49 2.5 0c0.61-0.36 0.68-1.4 0.12-1.89c-0.31-0.27-0.69-0.45-1.06-0.61c-0.67-0.3-1.38-0.51-2.03-0.85c-1.36-0.72-2.02-2.31-1.63-3.81c0.28-1.09 1.04-1.67 1.99-2.01c0.15-0.05 0.31-0.09 0.49-0.14z" />
				</g>
			</g>
		</g>
	</g>
</svg>