<svg width="31" height="24" viewBox="0 0 31 24" fill="none" xmlns="http://www.w3.org/2000/svg">
	<path d="M30.02 11.25H15.96V7.5H19.76C20.5993 7.5 21.28 6.82828 21.28 6V1.5C21.28 0.671719 20.5993 0 19.76 0H10.64C9.80068 0 9.12 0.671719 9.12 1.5V6C9.12 6.82828 9.80068 7.5 10.64 7.5H14.44V11.25H0.38C0.17005 11.25 0 11.4178 0 11.625V12.375C0 12.5822 0.17005 12.75 0.38 12.75H6.08V16.5H3.04C2.20068 16.5 1.52 17.1717 1.52 18V22.5C1.52 23.3283 2.20068 24 3.04 24H10.64C11.4793 24 12.16 23.3283 12.16 22.5V18C12.16 17.1717 11.4793 16.5 10.64 16.5H7.6V12.75H22.8V16.5H19.76C18.9207 16.5 18.24 17.1717 18.24 18V22.5C18.24 23.3283 18.9207 24 19.76 24H27.36C28.1993 24 28.88 23.3283 28.88 22.5V18C28.88 17.1717 28.1993 16.5 27.36 16.5H24.32V12.75H30.02C30.2299 12.75 30.4 12.5822 30.4 12.375V11.625C30.4 11.4178 30.2299 11.25 30.02 11.25ZM10.64 18V22.5H3.04V18H10.64ZM10.64 6V1.5H19.76V6H10.64ZM27.36 18V22.5H19.76V18H27.36Z" fill="url(#paint0_linear_102_90)" />
	<defs>
		<linearGradient id="paint0_linear_102_90" x1="0" y1="0" x2="23.3447" y2="29.57" gradientUnits="userSpaceOnUse">
			<stop stop-color="#ECC94B" />
			<stop offset="1" stop-color="#ED8936" />
		</linearGradient>
	</defs>
</svg>
