<svg width="27" height="24" viewBox="0 0 27 24" fill="none" xmlns="http://www.w3.org/2000/svg">
	<path d="M19.4483 12C19.4483 11.3144 20.0041 10.7586 20.6897 10.7586C21.3753 10.7586 21.931 11.3144 21.931 12C21.931 12.6856 21.3753 13.2414 20.6897 13.2414C20.0041 13.2414 19.4483 12.6856 19.4483 12ZM17.3793 13.2414C18.0649 13.2414 18.6207 12.6856 18.6207 12C18.6207 11.3144 18.0649 10.7586 17.3793 10.7586C16.6937 10.7586 16.1379 11.3144 16.1379 12C16.1379 12.6856 16.6937 13.2414 17.3793 13.2414ZM26.4828 6.62069C26.4828 7.25669 26.2433 7.83657 25.8501 8.27586C26.2433 8.71515 26.4828 9.29503 26.4828 9.93103V14.069C26.4828 14.705 26.2433 15.2848 25.8501 15.7241C26.2433 16.1634 26.4828 16.7433 26.4828 17.3793V21.5172C26.4828 22.8884 25.3712 24 24 24H2.48276C1.11155 24 0 22.8884 0 21.5172V17.3793C0 16.7433 0.239431 16.1634 0.63269 15.7241C0.239431 15.2848 0 14.705 0 14.069V9.93103C0 9.29503 0.239431 8.71515 0.63269 8.27586C0.239431 7.83657 0 7.25669 0 6.62069V2.48276C0 1.11155 1.11155 0 2.48276 0H24C25.3712 0 26.4828 1.11155 26.4828 2.48276V6.62069ZM1.65517 6.62069C1.65517 7.077 2.02645 7.44828 2.48276 7.44828H24C24.4563 7.44828 24.8276 7.077 24.8276 6.62069V2.48276C24.8276 2.02645 24.4563 1.65517 24 1.65517H2.48276C2.02645 1.65517 1.65517 2.02645 1.65517 2.48276V6.62069ZM24 9.10345H2.48276C2.02645 9.10345 1.65517 9.47472 1.65517 9.93103V14.069C1.65517 14.5253 2.02645 14.8966 2.48276 14.8966H24C24.4563 14.8966 24.8276 14.5253 24.8276 14.069V9.93103C24.8276 9.47472 24.4563 9.10345 24 9.10345ZM24.8276 17.3793C24.8276 16.923 24.4563 16.5517 24 16.5517H2.48276C2.02645 16.5517 1.65517 16.923 1.65517 17.3793V21.5172C1.65517 21.9736 2.02645 22.3448 2.48276 22.3448H24C24.4563 22.3448 24.8276 21.9736 24.8276 21.5172V17.3793ZM20.6897 5.7931C21.3753 5.7931 21.931 5.23733 21.931 4.55172C21.931 3.86612 21.3753 3.31034 20.6897 3.31034C20.0041 3.31034 19.4483 3.86612 19.4483 4.55172C19.4483 5.23733 20.0041 5.7931 20.6897 5.7931ZM17.3793 5.7931C18.0649 5.7931 18.6207 5.23733 18.6207 4.55172C18.6207 3.86612 18.0649 3.31034 17.3793 3.31034C16.6937 3.31034 16.1379 3.86612 16.1379 4.55172C16.1379 5.23733 16.6937 5.7931 17.3793 5.7931ZM20.6897 18.2069C20.0041 18.2069 19.4483 18.7627 19.4483 19.4483C19.4483 20.1339 20.0041 20.6897 20.6897 20.6897C21.3753 20.6897 21.931 20.1339 21.931 19.4483C21.931 18.7627 21.3753 18.2069 20.6897 18.2069ZM17.3793 18.2069C16.6937 18.2069 16.1379 18.7627 16.1379 19.4483C16.1379 20.1339 16.6937 20.6897 17.3793 20.6897C18.0649 20.6897 18.6207 20.1339 18.6207 19.4483C18.6207 18.7627 18.0649 18.2069 17.3793 18.2069Z" fill="url(#paint0_linear_102_85)" />
	<defs>
		<linearGradient id="paint0_linear_102_85" x1="0" y1="0" x2="23.8842" y2="26.355" gradientUnits="userSpaceOnUse">
			<stop stop-color="#4299E1" />
			<stop offset="1" stop-color="#ED64A6" />
		</linearGradient>
	</defs>
</svg>
