<svg width="25" height="24" viewBox="0 0 25 24" fill="none" xmlns="http://www.w3.org/2000/svg">
	<path d="M14.4783 11.7161L10.5342 10.6339C9.87132 10.4518 9.40569 9.8625 9.40569 9.20357C9.40569 8.38393 10.1069 7.71429 10.9669 7.71429H13.432C14.0455 7.71429 14.6317 7.90714 15.1083 8.25536C15.2836 8.38393 15.5246 8.3625 15.678 8.2125L16.297 7.59643C16.4832 7.41429 16.4613 7.11429 16.2532 6.95357C15.4534 6.33214 14.4673 5.99464 13.4265 5.99464H13.1472V3.85179C13.1472 3.61607 12.9499 3.42321 12.7089 3.42321H11.8324C11.5914 3.42321 11.3942 3.61607 11.3942 3.85179V5.99464H10.9669C9.14275 5.99464 7.65274 7.43036 7.65274 9.19821C7.65274 10.6232 8.64425 11.8875 10.0576 12.2786L14.0017 13.3607C14.6646 13.5429 15.1302 14.1321 15.1302 14.7911C15.1302 15.6107 14.429 16.2804 13.569 16.2804H11.1039C10.4903 16.2804 9.90419 16.0875 9.4276 15.7393C9.25231 15.6107 9.01128 15.6321 8.85789 15.7821L8.23888 16.3982C8.05263 16.5804 8.07454 16.8804 8.28271 17.0411C9.08249 17.6625 10.0685 18 11.1093 18H11.3942V20.1429C11.3942 20.3786 11.5914 20.5714 11.8324 20.5714H12.7089C12.9499 20.5714 13.1472 20.3786 13.1472 20.1429V18H13.5744C15.3986 18 16.8886 16.5643 16.8886 14.7964C16.8831 13.3714 15.8971 12.1071 14.4783 11.7161ZM21.9119 0H2.62943C1.17777 0 0 1.15179 0 2.57143V21.4286C0 22.8482 1.17777 24 2.62943 24H21.9119C23.3636 24 24.5414 22.8482 24.5414 21.4286V2.57143C24.5414 1.15179 23.3636 0 21.9119 0ZM22.7884 21.4286C22.7884 21.9 22.394 22.2857 21.9119 22.2857H2.62943C2.14737 22.2857 1.75295 21.9 1.75295 21.4286V2.57143C1.75295 2.1 2.14737 1.71429 2.62943 1.71429H21.9119C22.394 1.71429 22.7884 2.1 22.7884 2.57143V21.4286Z" fill="url(#paint0_linear_102_95)" />
	<defs>
		<linearGradient id="paint0_linear_102_95" x1="0" y1="0" x2="23.994" y2="24.5352" gradientUnits="userSpaceOnUse">
			<stop stop-color="#ECC94B" />
			<stop offset="1" stop-color="#48BB78" />
		</linearGradient>
	</defs>
</svg>
