<svg width="374" height="373" viewBox="0 0 374 373" fill="none"
    xmlns="http://www.w3.org/2000/svg">
    <path fill-rule="evenodd" clip-rule="evenodd" d="M139.451 35.6005C144.711 31.6061 148.778 28.9153 151.653 27.5281C156.139 25.363 159.476 23.5069 165.055 23.5069C167.875 23.8471 171.55 24.5987 175.666 27.7971C180.163 31.2926 185.092 37.3672 187.671 40.5311C188.797 41.912 192.763 47.0475 199.17 54.9422C202.594 59.1612 206.541 64.2553 211.514 69.7912C215.413 74.1322 222.525 80.3335 224.935 82.0116C227.345 83.6897 236.253 88.276 241.474 88.1779C243.776 88.1347 247.834 87.5593 251.102 85.6372C252.218 84.9803 253.596 83.6124 255.234 81.5335C251.302 82.3939 248.166 82.6961 245.824 82.4402C242.312 82.0563 239.655 80.3799 234.441 75.1762C232.974 73.7118 226.805 65.1396 219.769 54.9422C217.889 52.2188 211.047 41.9046 205.004 34.3002C198.327 25.8994 192.397 20.7458 188.543 17.4575C185.314 14.7027 179.47 11.8828 172.471 11.1914C168.434 10.7926 162.376 10.7926 157.511 13.4584C155.461 14.5818 150.547 16.8134 146.383 22.5463C142.82 27.4507 140.51 31.8021 139.451 35.6005Z" fill="url(#paint0_angular_52_3846)"/>
    <path fill-rule="evenodd" clip-rule="evenodd" d="M220.19 31.4717C226.739 30.668 231.606 30.3892 234.79 30.6352C239.759 31.0192 243.577 31.0931 248.418 33.8885C250.696 35.5944 253.511 38.0829 255.492 42.8987C257.657 48.1619 258.915 55.8619 259.581 59.8784C259.871 61.6314 260.76 68.0402 262.396 78.0481C263.271 83.3963 264.163 89.7599 265.727 97.018C266.953 102.71 270.041 111.612 271.299 114.264C272.556 116.917 278.006 125.329 282.585 127.861C284.604 128.977 288.411 130.515 292.202 130.497C293.498 130.491 295.373 130.004 297.827 129.035C293.988 127.805 291.116 126.494 289.212 125.1C286.355 123.01 284.883 120.235 282.945 113.142C282.399 111.146 281.307 100.675 280.27 88.3692C279.993 85.0827 279.182 72.7739 277.717 63.1983C276.099 52.6198 273.515 45.211 271.805 40.4488C270.373 36.4592 266.703 31.1028 260.973 27.0004C257.668 24.6342 252.412 21.5989 246.866 21.4565C244.528 21.3964 239.156 20.856 232.693 23.7054C227.164 26.143 222.996 28.7318 220.19 31.4717Z" fill="url(#paint1_angular_52_3846)"/>
    <path fill-rule="evenodd" clip-rule="evenodd" d="M292.734 69.9644C298.808 72.5436 303.162 74.7358 305.796 76.541C309.907 79.3587 313.177 81.3321 315.972 86.1739C317.092 88.7902 318.286 92.3532 317.594 97.5147C316.838 103.156 314.078 110.453 312.647 114.264C312.022 115.928 309.588 121.922 306.001 131.408C304.085 136.476 301.677 142.434 299.403 149.502C297.619 155.044 295.843 164.298 295.606 167.224C295.369 170.15 295.883 180.16 298.584 184.643C299.774 186.619 302.302 189.855 305.594 191.735C306.719 192.378 308.587 192.893 311.197 193.282C308.486 190.297 306.655 187.725 305.702 185.566C304.273 182.327 304.385 179.188 306.253 172.076C306.778 170.075 311.068 160.46 316.321 149.284C317.724 146.299 323.175 135.234 326.694 126.209C330.581 116.239 332.046 108.53 332.946 103.551C333.7 99.3795 333.2 92.9054 330.289 86.4872C328.609 82.7854 325.575 77.5281 320.843 74.6311C318.848 73.4102 314.466 70.2555 307.444 69.4912C301.438 68.8374 296.534 68.9951 292.734 69.9644Z" fill="url(#paint2_angular_52_3846)"/>
    <path fill-rule="evenodd" clip-rule="evenodd" d="M338.056 139.164C341.934 144.504 344.537 148.626 345.866 151.53C347.939 156.063 349.725 159.439 349.628 165.029C349.24 167.849 348.429 171.518 345.178 175.586C341.626 180.032 335.502 184.865 332.312 187.394C330.92 188.498 325.747 192.383 317.789 198.666C313.536 202.024 308.404 205.89 302.815 210.776C298.432 214.608 292.144 221.626 290.434 224.012C288.724 226.398 284.011 235.243 284.017 240.477C284.019 242.783 284.52 246.86 286.374 250.167C287.007 251.297 288.342 252.701 290.38 254.379C289.593 250.424 289.348 247.276 289.643 244.935C290.086 241.423 291.799 238.789 297.062 233.655C298.543 232.21 307.17 226.179 317.428 219.305C320.168 217.469 330.539 210.793 338.202 204.869C346.668 198.325 351.894 192.472 355.23 188.668C358.024 185.481 360.929 179.674 361.738 172.673C362.205 168.635 362.311 162.565 359.747 157.644C358.666 155.57 356.534 150.609 350.909 146.337C346.097 142.682 341.813 140.291 338.056 139.164Z" fill="url(#paint3_angular_52_3846)"/>
    <path fill-rule="evenodd" clip-rule="evenodd" d="M340.653 219.203C341.457 225.754 341.736 230.621 341.49 233.806C341.106 238.776 341.032 242.595 338.237 247.436C336.531 249.714 334.043 252.53 329.228 254.512C323.966 256.677 316.267 257.935 312.252 258.601C310.499 258.892 304.091 259.781 294.085 261.417C288.738 262.292 282.375 263.184 275.118 264.748C269.428 265.975 260.527 269.063 257.875 270.321C255.223 271.579 246.812 277.029 244.281 281.61C243.165 283.629 241.627 287.437 241.645 291.228C241.651 292.524 242.138 294.399 243.107 296.854C244.336 293.014 245.648 290.142 247.041 288.237C249.131 285.38 251.905 283.907 258.997 281.969C260.992 281.424 271.462 280.332 283.766 279.294C287.052 279.017 299.358 278.206 308.932 276.741C319.509 275.123 326.916 272.538 331.678 270.828C335.667 269.395 341.022 265.725 345.124 259.994C347.49 256.688 350.524 251.431 350.667 245.884C350.727 243.546 351.267 238.173 348.418 231.709C345.981 226.179 343.393 222.011 340.653 219.203Z" fill="url(#paint4_angular_52_3846)"/>
    <path fill-rule="evenodd" clip-rule="evenodd" d="M302.167 292.601C299.589 298.675 297.397 303.03 295.592 305.665C292.775 309.777 290.802 313.047 285.961 315.843C283.345 316.963 279.782 318.157 274.622 317.465C268.982 316.709 261.686 313.948 257.875 312.517C256.212 311.892 250.219 309.457 240.735 305.87C235.667 303.954 229.71 301.545 222.644 299.27C217.103 297.487 207.85 295.711 204.925 295.473C201.999 295.236 191.991 295.751 187.508 298.451C185.533 299.642 182.297 302.171 180.417 305.463C179.775 306.588 179.259 308.456 178.871 311.067C181.855 308.356 184.427 306.524 186.585 305.571C189.824 304.142 192.963 304.254 200.073 306.122C202.074 306.647 211.687 310.937 222.861 316.192C225.845 317.595 236.909 323.047 245.932 326.566C255.901 330.454 263.608 331.92 268.587 332.82C272.757 333.574 279.23 333.073 285.647 330.162C289.348 328.482 294.605 325.447 297.501 320.714C298.722 318.719 301.876 314.336 302.64 307.314C303.294 301.306 303.136 296.402 302.167 292.601Z" fill="url(#paint5_angular_52_3846)"/>
    <path fill-rule="evenodd" clip-rule="evenodd" d="M233.693 336.399C228.433 340.394 224.366 343.085 221.491 344.472C217.004 346.637 213.667 348.493 208.088 348.493C205.269 348.153 201.594 347.401 197.478 344.203C192.981 340.707 188.052 334.633 185.472 331.469C184.347 330.088 180.381 324.952 173.974 317.058C170.549 312.839 166.603 307.745 161.63 302.209C157.73 297.868 150.619 291.666 148.209 289.988C145.799 288.31 136.891 283.724 131.67 283.822C129.368 283.865 125.31 284.441 122.042 286.363C120.925 287.02 119.548 288.388 117.91 290.467C121.842 289.606 124.978 289.304 127.32 289.56C130.831 289.944 133.489 291.62 138.703 296.824C140.17 298.288 146.338 306.86 153.375 317.058C155.254 319.781 162.096 330.095 168.14 337.7C174.816 346.101 180.747 351.254 184.601 354.542C187.829 357.297 193.674 360.117 200.673 360.809C204.71 361.207 210.768 361.207 215.633 358.542C217.683 357.418 222.596 355.187 226.761 349.454C230.323 344.549 232.634 340.198 233.693 336.399Z" fill="url(#paint6_angular_52_3846)"/>
    <path fill-rule="evenodd" clip-rule="evenodd" d="M152.954 339.688C146.405 340.491 141.538 340.77 138.354 340.524C133.385 340.14 129.567 340.066 124.726 337.271C122.448 335.565 119.633 333.077 117.652 328.261C115.486 322.997 114.229 315.298 113.563 311.281C113.272 309.528 112.384 303.119 110.748 293.111C109.873 287.763 108.981 281.4 107.417 274.141C106.191 268.45 103.102 259.547 101.845 256.895C100.588 254.242 95.1381 245.83 90.5584 243.298C88.54 242.182 84.7324 240.644 80.9417 240.662C79.6463 240.668 77.7712 241.156 75.3165 242.125C79.1558 243.354 82.0277 244.665 83.932 246.059C86.7886 248.149 88.2612 250.924 90.1992 258.017C90.7446 260.013 91.8364 270.484 92.8741 282.79C93.1512 286.077 93.9617 298.385 95.4263 307.961C97.0443 318.54 99.629 325.948 101.339 330.711C102.771 334.7 106.441 340.057 112.171 344.159C115.475 346.525 120.732 349.56 126.278 349.703C128.616 349.763 133.988 350.303 140.451 347.454C145.98 345.016 150.147 342.428 152.954 339.688Z" fill="url(#paint7_angular_52_3846)"/>
    <path fill-rule="evenodd" clip-rule="evenodd" d="M80.4099 302.036C74.3363 299.456 69.9823 297.264 67.348 295.459C63.2364 292.641 59.9668 290.668 57.1719 285.826C56.0521 283.21 54.858 279.647 55.5497 274.485C56.3057 268.844 59.0657 261.547 60.4972 257.736C61.1219 256.072 63.5562 250.078 67.1423 240.592C69.0588 235.523 71.4669 229.566 73.7412 222.498C75.5246 216.956 77.3005 207.702 77.5376 204.776C77.7748 201.85 77.2604 191.84 74.5601 187.357C73.3699 185.381 70.8414 182.145 67.5497 180.265C66.4248 179.622 64.5572 179.107 61.9469 178.718C64.6573 181.703 66.4889 184.275 67.4415 186.434C68.8703 189.673 68.7585 192.812 66.891 199.924C66.3654 201.925 62.0762 211.54 56.823 222.716C55.42 225.701 49.9686 236.766 46.4501 245.791C42.563 255.761 41.0976 263.47 40.1975 268.449C39.4434 272.62 39.9439 279.095 42.8552 285.513C44.5344 289.215 47.5691 294.472 52.3013 297.369C54.2955 298.59 58.678 301.744 65.6993 302.509C71.706 303.163 76.6096 303.005 80.4099 302.036Z" fill="url(#paint8_angular_52_3846)"/>
    <path fill-rule="evenodd" clip-rule="evenodd" d="M36.3174 232.667C32.3689 227.407 29.7091 223.341 28.3379 220.466C26.1977 215.98 24.3629 212.643 24.3629 207.065C24.6992 204.246 25.4421 200.571 28.6038 196.456C32.059 191.959 38.0637 187.031 41.1912 184.452C42.5562 183.326 47.6326 179.361 55.4364 172.954C59.6068 169.531 64.6423 165.584 70.1145 160.612C74.4055 156.713 80.5354 149.603 82.1942 147.193C83.853 144.783 88.3864 135.876 88.2895 130.655C88.2468 128.354 87.678 124.296 85.778 121.029C85.1287 119.913 83.7766 118.535 81.7215 116.897C82.5721 120.829 82.8708 123.965 82.6178 126.306C82.2383 129.817 80.5813 132.474 75.4374 137.688C73.9899 139.155 65.5164 145.323 55.4364 152.358C52.7444 154.237 42.5488 161.079 35.032 167.121C26.7279 173.797 21.6337 179.727 18.3832 183.58C15.6601 186.809 12.8727 192.652 12.1892 199.651C11.795 203.687 11.795 209.744 14.4301 214.609C15.5406 216.659 17.7465 221.572 23.4134 225.735C28.2613 229.298 32.5626 231.608 36.3174 232.667Z" fill="url(#paint9_angular_52_3846)"/>
    <path fill-rule="evenodd" clip-rule="evenodd" d="M32.4905 151.956C31.6869 145.406 31.4081 140.538 31.6541 137.354C32.038 132.384 32.112 128.565 34.9069 123.723C36.6124 121.445 39.1005 118.629 43.9155 116.648C49.1778 114.482 56.8764 113.224 60.8923 112.558C62.645 112.268 69.0526 111.379 79.0588 109.742C84.4061 108.868 90.7686 107.975 98.0254 106.411C103.716 105.185 112.617 102.096 115.269 100.838C117.921 99.5808 126.332 94.1301 128.863 89.5496C129.979 87.5309 131.517 83.7227 131.499 79.9313C131.493 78.6356 131.005 76.7602 130.036 74.3052C128.807 78.1451 127.496 81.0175 126.103 82.9222C124.013 85.7792 121.239 87.252 114.147 89.1904C112.151 89.7359 101.682 90.8279 89.3781 91.8657C86.0922 92.1429 73.7855 92.9535 64.2116 94.4184C53.6349 96.0367 46.2274 98.6218 41.466 100.332C37.4771 101.764 32.1216 105.435 28.0199 111.166C25.6541 114.471 22.6194 119.728 22.4769 125.276C22.4169 127.613 21.8766 132.987 24.7255 139.451C27.1627 144.98 29.751 149.149 32.4905 151.956Z" fill="url(#paint10_angular_52_3846)"/>
    <path fill-rule="evenodd" clip-rule="evenodd" d="M70.1361 79.3994C72.7148 73.3247 74.9067 68.97 76.7116 66.3353C79.5288 62.2229 81.5019 58.9528 86.3428 56.1574C88.9587 55.0374 92.5211 53.8431 97.6816 54.5349C103.322 55.291 110.618 58.0515 114.428 59.4832C116.091 60.1081 122.085 62.5428 131.569 66.1295C136.637 68.0463 142.593 70.4549 149.659 72.7296C155.201 74.5133 164.453 76.2894 167.379 76.5266C170.304 76.7638 180.313 76.2494 184.795 73.5486C186.771 72.3582 190.006 69.8293 191.886 66.537C192.529 65.4119 193.044 63.544 193.432 60.9332C190.448 63.6441 187.877 65.476 185.718 66.4287C182.48 67.8579 179.341 67.746 172.23 65.8781C170.229 65.3525 160.616 61.0625 149.442 55.8084C146.458 54.4052 135.395 48.9529 126.371 45.4337C116.403 41.546 108.695 40.0803 103.717 39.1801C99.5461 38.4259 93.0731 38.9265 86.6561 41.8383C82.9549 43.5177 77.6985 46.553 74.802 51.2859C73.5813 53.2805 70.4271 57.6637 69.663 64.6863C69.0093 70.6941 69.167 75.5984 70.1361 79.3994Z" fill="url(#paint11_angular_52_3846)"/>
    <defs>
        <radialGradient id="paint0_angular_52_3846" cx="0" cy="0" r="1" gradientUnits="userSpaceOnUse" gradientTransform="translate(187 186) rotate(98.2669) scale(242.09 242.182)">
            <stop offset="0.0729167" stop-color="#9F7AEA"/>
            <stop offset="0.395833" stop-color="#4299E1"/>
            <stop offset="0.84375" stop-color="#ED64A6"/>
        </radialGradient>
        <radialGradient id="paint1_angular_52_3846" cx="0" cy="0" r="1" gradientUnits="userSpaceOnUse" gradientTransform="translate(187 186) rotate(98.2669) scale(242.09 242.182)">
            <stop offset="0.0729167" stop-color="#9F7AEA"/>
            <stop offset="0.395833" stop-color="#4299E1"/>
            <stop offset="0.84375" stop-color="#ED64A6"/>
        </radialGradient>
        <radialGradient id="paint2_angular_52_3846" cx="0" cy="0" r="1" gradientUnits="userSpaceOnUse" gradientTransform="translate(187 186) rotate(98.2669) scale(242.09 242.182)">
            <stop offset="0.0729167" stop-color="#9F7AEA"/>
            <stop offset="0.395833" stop-color="#4299E1"/>
            <stop offset="0.84375" stop-color="#ED64A6"/>
        </radialGradient>
        <radialGradient id="paint3_angular_52_3846" cx="0" cy="0" r="1" gradientUnits="userSpaceOnUse" gradientTransform="translate(187 186) rotate(98.2669) scale(242.09 242.182)">
            <stop offset="0.0729167" stop-color="#9F7AEA"/>
            <stop offset="0.395833" stop-color="#4299E1"/>
            <stop offset="0.84375" stop-color="#ED64A6"/>
        </radialGradient>
        <radialGradient id="paint4_angular_52_3846" cx="0" cy="0" r="1" gradientUnits="userSpaceOnUse" gradientTransform="translate(187 186) rotate(98.2669) scale(242.09 242.182)">
            <stop offset="0.0729167" stop-color="#9F7AEA"/>
            <stop offset="0.395833" stop-color="#4299E1"/>
            <stop offset="0.84375" stop-color="#ED64A6"/>
        </radialGradient>
        <radialGradient id="paint5_angular_52_3846" cx="0" cy="0" r="1" gradientUnits="userSpaceOnUse" gradientTransform="translate(187 186) rotate(98.2669) scale(242.09 242.182)">
            <stop offset="0.0729167" stop-color="#9F7AEA"/>
            <stop offset="0.395833" stop-color="#4299E1"/>
            <stop offset="0.84375" stop-color="#ED64A6"/>
        </radialGradient>
        <radialGradient id="paint6_angular_52_3846" cx="0" cy="0" r="1" gradientUnits="userSpaceOnUse" gradientTransform="translate(187 186) rotate(98.2669) scale(242.09 242.182)">
            <stop offset="0.0729167" stop-color="#9F7AEA"/>
            <stop offset="0.395833" stop-color="#4299E1"/>
            <stop offset="0.84375" stop-color="#ED64A6"/>
        </radialGradient>
        <radialGradient id="paint7_angular_52_3846" cx="0" cy="0" r="1" gradientUnits="userSpaceOnUse" gradientTransform="translate(187 186) rotate(98.2669) scale(242.09 242.182)">
            <stop offset="0.0729167" stop-color="#9F7AEA"/>
            <stop offset="0.395833" stop-color="#4299E1"/>
            <stop offset="0.84375" stop-color="#ED64A6"/>
        </radialGradient>
        <radialGradient id="paint8_angular_52_3846" cx="0" cy="0" r="1" gradientUnits="userSpaceOnUse" gradientTransform="translate(187 186) rotate(98.2669) scale(242.09 242.182)">
            <stop offset="0.0729167" stop-color="#9F7AEA"/>
            <stop offset="0.395833" stop-color="#4299E1"/>
            <stop offset="0.84375" stop-color="#ED64A6"/>
        </radialGradient>
        <radialGradient id="paint9_angular_52_3846" cx="0" cy="0" r="1" gradientUnits="userSpaceOnUse" gradientTransform="translate(187 186) rotate(98.2669) scale(242.09 242.182)">
            <stop offset="0.0729167" stop-color="#9F7AEA"/>
            <stop offset="0.395833" stop-color="#4299E1"/>
            <stop offset="0.84375" stop-color="#ED64A6"/>
        </radialGradient>
        <radialGradient id="paint10_angular_52_3846" cx="0" cy="0" r="1" gradientUnits="userSpaceOnUse" gradientTransform="translate(187 186) rotate(98.2669) scale(242.09 242.182)">
            <stop offset="0.0729167" stop-color="#9F7AEA"/>
            <stop offset="0.395833" stop-color="#4299E1"/>
            <stop offset="0.84375" stop-color="#ED64A6"/>
        </radialGradient>
        <radialGradient id="paint11_angular_52_3846" cx="0" cy="0" r="1" gradientUnits="userSpaceOnUse" gradientTransform="translate(187 186) rotate(98.2669) scale(242.09 242.182)">
            <stop offset="0.0729167" stop-color="#9F7AEA"/>
            <stop offset="0.395833" stop-color="#4299E1"/>
            <stop offset="0.84375" stop-color="#ED64A6"/>
        </radialGradient>
    </defs>
</svg>